<?xml version="1.0" encoding="iso-8859-1"?>
<!-- Generator: Adobe Illustrator 18.1.1, SVG Export Plug-In . SVG Version: 6.00 Build 0)  -->
<svg version="1.1" id="Capa_1" xmlns="http://www.w3.org/2000/svg" xmlns:xlink="http://www.w3.org/1999/xlink" x="0px" y="0px"
	 viewBox="0 0 84.051 84.051" style="enable-background:new 0 0 84.051 84.051;" xml:space="preserve">
<g id="_x37_7_Essential_Icons_23_">
	<path id="Forward" d="M78.425,28.615l-28-28c-1.3-1.3-3.4-0.4-3.4,1.4v13.6c-1.4-0.2-3.1-0.3-4.8-0.3c-20.5,0-37.2,16.4-37.2,36.6
		c0,13.5,7.5,25.5,20.1,31.9c2,1,3.8-1.4,2.4-3.1c-3.6-4.3-5.4-8.9-5.4-14c0-12.6,10.4-22.9,23.2-22.9c0.6,0,1.2,0,1.7,0.1v14.1
		c0,1.8,2.1,2.7,3.4,1.4l28-28C79.225,30.615,79.225,29.415,78.425,28.615z M51.025,53.115v-11.1c0-1-0.7-1.8-1.7-2
		c-1.2-0.2-2.6-0.3-4-0.3c-15,0-27.2,12.1-27.2,26.9c0,3,0.5,5.9,1.6,8.6c-6.8-5.9-10.7-14.2-10.7-23.3c0-17.9,14.9-32.5,33.2-32.5
		c2.4,0,4.8,0.4,6.4,0.7c1.2,0.2,2.4-0.7,2.4-2v-11.3l23.2,23.2L51.025,53.115z"/>
</g>
<g>
</g>
<g>
</g>
<g>
</g>
<g>
</g>
<g>
</g>
<g>
</g>
<g>
</g>
<g>
</g>
<g>
</g>
<g>
</g>
<g>
</g>
<g>
</g>
<g>
</g>
<g>
</g>
<g>
</g>
</svg>
